<svg xmlns="http://www.w3.org/2000/svg" width="25.001" height="25" viewBox="0 0 25.001 25">
    <g transform="translate(-55.433)">
        <path data-name="Path 866" d="M67.933 2.252c3.338 0 3.733.013 5.051.073a6.935 6.935 0 0 1 2.321.43 3.872 3.872 0 0 1 1.437.935 3.859 3.859 0 0 1 .935 1.438 6.9 6.9 0 0 1 .43 2.321c.06 1.317.073 1.713.073 5.051s-.013 3.733-.073 5.051a6.915 6.915 0 0 1-.43 2.321 4.14 4.14 0 0 1-2.372 2.372 6.909 6.909 0 0 1-2.321.43c-1.318.06-1.713.073-5.051.073s-3.733-.013-5.051-.073a6.9 6.9 0 0 1-2.321-.43 4.138 4.138 0 0 1-2.373-2.372 6.941 6.941 0 0 1-.43-2.321c-.06-1.318-.073-1.713-.073-5.051s.013-3.733.073-5.051a6.929 6.929 0 0 1 .43-2.321 3.884 3.884 0 0 1 .935-1.438 3.872 3.872 0 0 1 1.438-.935 6.929 6.929 0 0 1 2.321-.43c1.318-.06 1.713-.073 5.051-.073m0-2.252c-3.395 0-3.821.014-5.154.075a9.183 9.183 0 0 0-3.034.581A6.135 6.135 0 0 0 57.531 2.1a6.135 6.135 0 0 0-1.442 2.214 9.183 9.183 0 0 0-.581 3.034c-.061 1.333-.075 1.759-.075 5.154s.014 3.82.075 5.154a9.183 9.183 0 0 0 .581 3.034 6.394 6.394 0 0 0 3.656 3.656 9.183 9.183 0 0 0 3.034.581c1.334.061 1.759.075 5.154.075s3.821-.014 5.154-.075a9.183 9.183 0 0 0 3.034-.581 6.394 6.394 0 0 0 3.656-3.656 9.157 9.157 0 0 0 .581-3.034c.061-1.334.076-1.759.076-5.154s-.015-3.821-.076-5.154a9.157 9.157 0 0 0-.581-3.034A6.113 6.113 0 0 0 78.335 2.1 6.122 6.122 0 0 0 76.121.656a9.157 9.157 0 0 0-3.034-.581C71.753.014 71.328 0 67.933 0z" style="fill:#fff"/>
        <path data-name="Path 867" d="M67.933 6.081a6.418 6.418 0 1 0 6.418 6.419 6.419 6.419 0 0 0-6.418-6.419zm0 10.585A4.167 4.167 0 1 1 72.1 12.5a4.167 4.167 0 0 1-4.167 4.166z" style="fill:#fff"/>
        <circle data-name="Ellipse 193" cx="1.5" cy="1.5" r="1.5" transform="translate(73.105 4.327)" style="fill:#fff"/>
    </g>
</svg>
