<svg xmlns="http://www.w3.org/2000/svg" width="24.769" height="20" viewBox="0 0 24.769 20">
    <path d="M144.9 7.577v.615A14.24 14.24 0 0 1 130.59 22.5a12.991 12.991 0 0 1-7.692-2.308h1.231a10.09 10.09 0 0 0 6.307-2.154 5.289 5.289 0 0 1-4.769-3.538c.308 0 .615.154.923.154a4.258 4.258 0 0 0 1.385-.154 4.967 4.967 0 0 1-4-4.923 5.089 5.089 0 0 0 2.307.615 5.049 5.049 0 0 1-2.307-4.154 7.238 7.238 0 0 1 .615-2.615 13.9 13.9 0 0 0 10.462 5.231 2.616 2.616 0 0 1-.154-1.077 5.122 5.122 0 0 1 5.077-5.077 5.372 5.372 0 0 1 3.692 1.538 8.279 8.279 0 0 0 3.231-1.23 4.913 4.913 0 0 1-2.154 2.769 16.294 16.294 0 0 0 2.923-.769 11.755 11.755 0 0 1-2.767 2.769z" transform="translate(-122.898 -2.5)" style="fill:#fff"/>
</svg>
