<svg xmlns="http://www.w3.org/2000/svg" width="28.071" height="20" viewBox="0 0 28.071 20">
    <path d="m201.184 16.184 7.719-4.035-7.719-3.86zm17.016-2.631a34.376 34.376 0 0 1-.351 4.561 8.042 8.042 0 0 1-1.053 2.807 5.176 5.176 0 0 1-2.807 1.228c-3.86.351-9.825.351-9.825.351s-7.368 0-9.473-.351c-.7-.175-2.1 0-3.158-1.228a5.486 5.486 0 0 1-1.053-2.807 34.376 34.376 0 0 1-.351-4.561v-2.106a34.376 34.376 0 0 1 .351-4.561 8.042 8.042 0 0 1 1.053-2.807 5.176 5.176 0 0 1 2.807-1.228c3.86-.351 9.824-.351 9.824-.351s5.965 0 9.825.351a3.42 3.42 0 0 1 2.811 1.228 5.486 5.486 0 0 1 1.053 2.807 34.376 34.376 0 0 1 .351 4.561z" transform="translate(-190.131 -2.5)" style="fill:#fff"/>
</svg>
