<svg xmlns="http://www.w3.org/2000/svg" viewBox="0 0 657.03 181.56"><defs><style>.cls-1{fill:#00004e;}</style></defs><g id="Camada_2" data-name="Camada 2"><path class="cls-1" d="M160,82.29a27.36,27.36,0,0,0-22.84-.3,27.48,27.48,0,0,0-8.73,6.43,29.09,29.09,0,0,0-5.73,9.33,30.67,30.67,0,0,0-2,11,26.56,26.56,0,0,0,2,10.47A22.32,22.32,0,0,0,128,127a24.47,24.47,0,0,0,7.78,4.89,24.78,24.78,0,0,0,9,1.69,26.56,26.56,0,0,0,11.47-2.44,27.41,27.41,0,0,0,8.93-6.69,30.63,30.63,0,0,0,5.73-9.52l-.4-.3a22.45,22.45,0,0,1-7.68,6.18,21.85,21.85,0,0,1-10,2.3,18.94,18.94,0,0,1-9.28-2.25,15.07,15.07,0,0,1-6.38-7.13A29,29,0,0,1,135,101.88h36.18V100a18.83,18.83,0,0,0-3-10.42A20.71,20.71,0,0,0,160,82.29Zm-25,16.6a27.45,27.45,0,0,1,1.52-8.43,12.87,12.87,0,0,1,4.34-6.08,10.18,10.18,0,0,1,6-1.94,8.34,8.34,0,0,1,5.24,1.64,10.61,10.61,0,0,1,3.34,5.24,32.86,32.86,0,0,1,1.3,9.57Zm98,30.72v.3A40.3,40.3,0,0,0,222.8,131a57.45,57.45,0,0,0-9,2.89h-.29v-8.68c0-1.13,0-2.06.1-2.79v-.1a56.21,56.21,0,0,1-6.59,5.14,47.8,47.8,0,0,1-8.23,4.48,21.46,21.46,0,0,1-8.42,1.85c-3.59,0-6.39-1.05-8.38-3.14a11.56,11.56,0,0,1-3-8.33V96.2a10.8,10.8,0,0,0-1.25-5.39,6.84,6.84,0,0,0-4.14-3.09v-.3A38.36,38.36,0,0,0,181,86.13a31,31,0,0,0,6.59-2.7,20.67,20.67,0,0,0,5.23-4.09h.3V118a8.12,8.12,0,0,0,1.5,5.24,5.65,5.65,0,0,0,4.68,1.84,23.23,23.23,0,0,0,6.84-1.24,47.61,47.61,0,0,0,7.43-3V96.2a9.85,9.85,0,0,0-1.35-5.34,7.85,7.85,0,0,0-4.44-3.14v-.3A56.91,56.91,0,0,0,215.07,86a35.12,35.12,0,0,0,6.73-2.55,20,20,0,0,0,5.59-4.09h.3v41.79a9.66,9.66,0,0,0,1.29,5.24A8.85,8.85,0,0,0,233,129.61Zm52.71-67a55.77,55.77,0,0,0-19.3-3,134.12,134.12,0,0,0-14.76.85q-7.58.85-15.76,2.25V63a8.82,8.82,0,0,1,4.89,3.59,10.52,10.52,0,0,1,1.6,5.78v49.25a12.31,12.31,0,0,1-1.6,6.38,9.42,9.42,0,0,1-4.89,4v.3h28.53V132a9.82,9.82,0,0,1-4.74-4,12,12,0,0,1-1.64-6.38V107.24c.65.15,1.26.32,1.94.45a51.14,51.14,0,0,0,9,.8,44.7,44.7,0,0,0,11.61-1.6,39.88,39.88,0,0,0,10.88-4.69,25.92,25.92,0,0,0,8-7.78,19.46,19.46,0,0,0,3.1-11,19.16,19.16,0,0,0-4.39-12.52A28.54,28.54,0,0,0,285.68,62.61Zm-5.48,37.7q-5.44,5.18-15.11,5.18a40.29,40.29,0,0,1-6-.5c-.34,0-.7-.13-1-.19V70.19q0-4,2.34-5.94c1.56-1.3,4.2-1.94,7.93-1.94a15.57,15.57,0,0,1,9.47,2.84,17.39,17.39,0,0,1,5.89,7.93,32.4,32.4,0,0,1,2,11.87Q285.63,95.12,280.2,100.31Zm66.17-13.49a8.33,8.33,0,0,1-1.94,5.64,6,6,0,0,1-4.64,2.24,5.46,5.46,0,0,1-3.24-.94,11.63,11.63,0,0,1-2.4-2.25,24.39,24.39,0,0,0-2-2.24,3.26,3.26,0,0,0-2.3-1A6.85,6.85,0,0,0,326,89.67,16.14,16.14,0,0,0,322.43,93v30a10.22,10.22,0,0,0,1.4,5.33,9.84,9.84,0,0,0,3.69,3.64v.3H303V132a10.08,10.08,0,0,0,3.84-3.64,10,10,0,0,0,1.44-5.33V96.2a11.51,11.51,0,0,0-1.2-5.14A6.4,6.4,0,0,0,303,87.72v-.3a40.8,40.8,0,0,0,7.13-1.24,32.27,32.27,0,0,0,6.68-2.6,18.79,18.79,0,0,0,5.43-4.24h.3v6.39c0,.86,0,1.88-.1,3s-.1,2-.1,2.54a18.87,18.87,0,0,1,3.89-5.78,23.45,23.45,0,0,1,5.84-4.44,13.7,13.7,0,0,1,6.53-1.75,7.61,7.61,0,0,1,5.69,2.15A7.36,7.36,0,0,1,346.37,86.82ZM370.7,132v.3H346.37V132a10,10,0,0,0,3.84-3.59,9.91,9.91,0,0,0,1.45-5.38V96.2a11.51,11.51,0,0,0-1.2-5.14,6.42,6.42,0,0,0-4.09-3.34v-.3a41.75,41.75,0,0,0,7.08-1.24,31.63,31.63,0,0,0,6.78-2.65,20.19,20.19,0,0,0,5.49-4.19h.3V123a11.47,11.47,0,0,0,1.24,5.38A8.3,8.3,0,0,0,370.7,132Zm.6-78.79a5.22,5.22,0,0,1,1.95,4.24,6.45,6.45,0,0,1-1.65,4.34,21.5,21.5,0,0,1-4.44,3.64l-6.58,4.29A88.05,88.05,0,0,0,352.35,76l-.39-.3a75.9,75.9,0,0,0,5-9.12q1.8-4,3.09-7.08a21.58,21.58,0,0,1,2.9-5A9.15,9.15,0,0,1,367,52,4.23,4.23,0,0,1,371.3,53.21ZM432.94,132v.3H410V132a7.46,7.46,0,0,0,3.39-3.44,12.78,12.78,0,0,0,1-5.43V95.5a8.09,8.09,0,0,0-1.5-5.23c-1-1.23-2.59-1.85-4.78-1.85a24,24,0,0,0-7,1.25,51,51,0,0,0-7.58,3v30.42a12.62,12.62,0,0,0,1,5.23,7.66,7.66,0,0,0,3.34,3.64v.3H374V132a9.78,9.78,0,0,0,3.94-3.69,10.19,10.19,0,0,0,1.34-5.28V96.2a12,12,0,0,0-1.14-5.14A6.3,6.3,0,0,0,374,87.72v-.3a43.08,43.08,0,0,0,7.23-1.24,31.65,31.65,0,0,0,6.78-2.6,17.48,17.48,0,0,0,5.33-4.24h.3v5.39c0,.93,0,2-.1,3.09s-.13,2.16-.2,3.09l.1.1c1.4-1.19,3-2.46,4.89-3.79a59.68,59.68,0,0,1,6-3.74,36.61,36.61,0,0,1,6.48-2.79,20.92,20.92,0,0,1,6.38-1c3.66,0,6.48,1,8.48,3.14a11.47,11.47,0,0,1,3,8.23v32a12.92,12.92,0,0,0,1.05,5.58A7.38,7.38,0,0,0,432.94,132Zm52.76-17.65.5.3a30.4,30.4,0,0,1-5.94,10.07,28.19,28.19,0,0,1-8.82,6.69,24.48,24.48,0,0,1-10.68,2.39,23.37,23.37,0,0,1-12.21-3.24,23.1,23.1,0,0,1-8.58-9,26.67,26.67,0,0,1-3.14-13,27,27,0,0,1,2.39-11.32A29,29,0,0,1,445.9,88,30.43,30.43,0,0,1,456,81.84a34.61,34.61,0,0,1,12.36-2.2,45.61,45.61,0,0,1,9.13,1,29.17,29.17,0,0,1,7.83,2.64l-7.58,18.46h-.3q-1.5-8.79-4.44-13.77t-8.23-5a11.56,11.56,0,0,0-7,2.24,15.19,15.19,0,0,0-4.89,6.33,24.64,24.64,0,0,0-1.79,9.88,26.41,26.41,0,0,0,2.34,11.42,18.24,18.24,0,0,0,25.39,8A19.6,19.6,0,0,0,485.7,114.35Zm27,17.65v.3H488.39V132a10,10,0,0,0,3.84-3.59,9.91,9.91,0,0,0,1.45-5.38V96.2a11.51,11.51,0,0,0-1.2-5.14,6.42,6.42,0,0,0-4.09-3.34v-.3a41.75,41.75,0,0,0,7.08-1.24,31.92,31.92,0,0,0,6.79-2.65,20.29,20.29,0,0,0,5.48-4.19h.3V123a11.47,11.47,0,0,0,1.24,5.38A8.32,8.32,0,0,0,512.73,132Zm-19.8-61.23a8.41,8.41,0,0,1-1.15-4.29,9,9,0,0,1,1.15-4.59,8.23,8.23,0,0,1,3.19-3.14,9.14,9.14,0,0,1,4.54-1.15,8.25,8.25,0,0,1,4.24,1.15A8.91,8.91,0,0,1,508,61.89a8.73,8.73,0,0,1,1.2,4.59,8.18,8.18,0,0,1-1.2,4.29A9.83,9.83,0,0,1,504.9,74a7.72,7.72,0,0,1-4.24,1.25A8.54,8.54,0,0,1,496.12,74,9,9,0,0,1,492.93,70.77Zm71,11.87a17,17,0,0,0-9.93-3,20.81,20.81,0,0,0-8.32,1.7,30.67,30.67,0,0,0-7,4.09,28.25,28.25,0,0,0-4.64,4.39c.06-.73.11-1.52.15-2.35s0-1.68,0-2.54V79.34H534a20.13,20.13,0,0,1-5.54,4.24,32.06,32.06,0,0,1-6.68,2.6,40.69,40.69,0,0,1-7,1.24v.3a6.26,6.26,0,0,1,4,3.34,12,12,0,0,1,1.15,5.14v47.67a11.64,11.64,0,0,1-1.2,5.54,7.65,7.65,0,0,1-3.39,3.34v.3h23.24v-.3a6.83,6.83,0,0,1-3.25-3.39,13,13,0,0,1-1-5.39V131.71a27.67,27.67,0,0,0,4.39.94,34.84,34.84,0,0,0,4.78.35,29.1,29.1,0,0,0,21.35-8.92,30.54,30.54,0,0,0,8.57-21.5,26.28,26.28,0,0,0-2.54-11.82A20.86,20.86,0,0,0,563.94,82.64Zm-7.83,36.5a21.24,21.24,0,0,1-5.64,8.48,11.86,11.86,0,0,1-8,3.09,9.17,9.17,0,0,1-5.89-1.9,6.36,6.36,0,0,1-2.39-5.28v-32A32.28,32.28,0,0,1,539.5,89a16.48,16.48,0,0,1,5.74-1,10.84,10.84,0,0,1,9.13,4.89q3.52,4.89,3.64,14.26A30.49,30.49,0,0,1,556.11,119.14ZM628.52,100a18.75,18.75,0,0,0-3-10.42,20.69,20.69,0,0,0-8.17-7.28,27.36,27.36,0,0,0-22.84-.3,27.48,27.48,0,0,0-8.73,6.43,28.91,28.91,0,0,0-5.73,9.33,30.46,30.46,0,0,0-2,11,26.56,26.56,0,0,0,2,10.47,22.32,22.32,0,0,0,5.38,7.78,24.47,24.47,0,0,0,7.78,4.89,24.78,24.78,0,0,0,9,1.69,26.56,26.56,0,0,0,11.47-2.44,27.27,27.27,0,0,0,8.92-6.69,30.47,30.47,0,0,0,5.74-9.52l-.4-.3a22.45,22.45,0,0,1-7.68,6.18,21.86,21.86,0,0,1-10,2.3,18.93,18.93,0,0,1-9.27-2.25,15.07,15.07,0,0,1-6.38-7.13,29,29,0,0,1-2.27-11.87h36.18Zm-36.13-1.1a27.45,27.45,0,0,1,1.52-8.43,12.87,12.87,0,0,1,4.34-6.08,10.15,10.15,0,0,1,6-1.94,8.34,8.34,0,0,1,5.24,1.64,10.61,10.61,0,0,1,3.34,5.24,32.86,32.86,0,0,1,1.3,9.57ZM236.6,53.22c-.92-4.16-2.44-9.91-3.26-12.91a2.28,2.28,0,0,1-.59.11,2.32,2.32,0,1,1,2.32-2.31,2.28,2.28,0,0,1-1,1.85c2.66,3.32,8.79,10.41,11.91,9.13,2.86-1.17,4.43-9.83,5.12-14.89a2.84,2.84,0,0,1-2.37-2.79,2.9,2.9,0,0,1,5.79,0,2.84,2.84,0,0,1-1.39,2.41c2.52,4.81,7.58,13.23,12.21,13.23s9.7-8.42,12.21-13.23a2.84,2.84,0,0,1-1.38-2.41,2.9,2.9,0,0,1,5.79,0,2.84,2.84,0,0,1-2.37,2.79c.68,5.06,2.26,13.72,5.11,14.89,3.13,1.28,9.26-5.81,11.91-9.13a2.27,2.27,0,0,1-1-1.85,2.32,2.32,0,1,1,2.31,2.31,2.21,2.21,0,0,1-.57-.11c-1.11,4.16-3.65,13.81-4.68,18.72A5,5,0,0,1,293,60.7a9.77,9.77,0,0,1-.29,1.56,34.35,34.35,0,0,0-7-3.47,56,56,0,0,0-19.3-3,134.12,134.12,0,0,0-14.76.85c-4.67.52-9.54,1.22-14.55,2.06A6.9,6.9,0,0,1,236.7,57a4.25,4.25,0,0,1,.37-1.48c5-.84,9.88-1.54,14.55-2.06,2.34-.26,4.64-.48,6.92-.6C260.55,52.71,259.7,51,236.6,53.22ZM116,128.76a11.5,11.5,0,0,0,4.64,3.24v.3H93V132a10.26,10.26,0,0,0,4.13-3.24A7.41,7.41,0,0,0,98.23,123L90.8,67.23,67.61,108.47h-.5l-20.52-40-7.5,53.13A9.57,9.57,0,0,0,44.87,132v.3H28.52V132a9.57,9.57,0,0,0,4.84-3.64,15.61,15.61,0,0,0,2.34-6.63l7.68-54a9.45,9.45,0,0,0-1.05-6.19,8,8,0,0,0-4.74-3.69v-.3H58.44L74.85,89.36,92.45,57.5H112v.3a8,8,0,0,0-4.53,3.69,9.86,9.86,0,0,0-1.15,6.19L113.69,123A10.85,10.85,0,0,0,116,128.76Z"/></g></svg>